%
M48
M72
T01C0.0236
T02C0.0276
T03C0.0315
T04C0.0320
T05C0.0400
T06C0.0748
%
T01
X3816Y9256
X3316Y11256
X5216Y16656
X11316Y10256
X11316Y9256
X15316Y10756
X17816Y4756
X16816Y17256
T02
X9316Y17756
X9316Y16756
X5816Y7206
X5816Y6267
X5816Y5306
X14816Y5756
X14816Y6756
T03
X2616Y16656
X3316Y16656
X3986Y16656
X3676Y17276
X2986Y17276
X14316Y19256
X16316Y19256
X17816Y19256
X19816Y19256
T04
X8816Y19256
X9816Y19256
X11316Y19756
X11316Y18756
X11316Y17756
X11316Y16756
X9816Y14756
X9816Y13756
X9816Y12756
X9816Y11756
X9816Y10756
X9816Y9756
X9816Y8756
X9816Y7756
X9816Y6756
X9816Y5756
X9816Y4756
X9816Y3756
X9816Y2756
X9816Y1756
X8316Y3256
X7316Y3256
X12816Y3756
X12816Y2756
X12816Y1756
X12816Y4756
X12816Y5756
X12816Y6756
X12816Y7756
X12816Y8756
X12816Y9756
X12816Y10756
X12816Y11756
X12816Y12756
X12816Y13756
X12816Y14756
X14816Y14756
X14816Y13756
X17316Y13256
X17316Y12256
X16816Y8256
X16816Y7256
T05
X1316Y1756
X1316Y2756
X1316Y3756
X1316Y4756
X1316Y6756
X1316Y7756
X1316Y8756
X1316Y9756
X1316Y11756
X1316Y12756
X1316Y13756
X1316Y14756
X6816Y16756
X6816Y17756
X6816Y18756
X19816Y9256
X19816Y8256
X19816Y7256
X19816Y6256
X19816Y4756
X19816Y3756
X19816Y2756
X19816Y1756
X7816Y1256
X6816Y1256
X5816Y1256
X4816Y1256
X3816Y1256
T06
X1879Y18756
X4753Y18756
M30
